<svg width="512" height="512" viewBox="0 0 512 512" xmlns="http://www.w3.org/2000/svg">
  <!-- 背景 -->
  <rect width="512" height="512" fill="#3498db" rx="64" />
  
  <!-- 仓库建筑 -->
  <rect x="128" y="192" width="256" height="192" fill="#ffffff" rx="16" />
  
  <!-- 仓库屋顶 -->
  <path d="M96 192 L256 96 L416 192 Z" fill="#e74c3c" />
  
  <!-- 仓库门 -->
  <rect x="224" y="288" width="64" height="96" fill="#34495e" rx="8" />
  
  <!-- 门把手 -->
  <circle cx="272" cy="336" r="4" fill="#f39c12" />
  
  <!-- 窗户 -->
  <rect x="160" y="224" width="32" height="32" fill="#95a5a6" rx="4" />
  <rect x="320" y="224" width="32" height="32" fill="#95a5a6" rx="4" />
  
  <!-- 仓库内部货架 -->
  <rect x="144" y="240" width="16" height="160" fill="#34495e" />
  <rect x="144" y="288" width="224" height="16" fill="#34495e" />
  <rect x="144" y="352" width="224" height="16" fill="#34495e" />
  <rect x="352" y="240" width="16" height="160" fill="#34495e" />
  
  <!-- 入库箭头 -->
  <path d="M128 384 L64 384 L64 320 L128 320 Z" fill="#2ecc71" />
  <polygon points="64,352 32,320 96,320" fill="#2ecc71" />
  
  <!-- 出库箭头 -->
  <path d="M384 384 L448 384 L448 320 L384 320 Z" fill="#e74c3c" />
  <polygon points="448,352 416,320 480,320" fill="#e74c3c" />
  
  <!-- 货物箱子 -->
  <rect x="160" y="304" width="48" height="32" fill="#f39c12" rx="4" />
  <rect x="176" y="304" width="32" height="16" fill="#e67e22" rx="2" />
  
  <rect x="240" y="304" width="48" height="32" fill="#9b59b6" rx="4" />
  <rect x="256" y="304" width="32" height="16" fill="#8e44ad" rx="2" />
  
  <rect x="320" y="304" width="48" height="32" fill="#1abc9c" rx="4" />
  <rect x="336" y="304" width="32" height="16" fill="#16a085" rx="2" />
</svg>